<svg width="18" height="18" viewBox="0 0 18 18" fill="none" xmlns="http://www.w3.org/2000/svg">
<path d="M17.7352 4.00046C17.5746 3.70109 17.3446 3.45161 17.0676 3.27635C16.7907 3.1011 16.4763 3.00606 16.155 3.00049H4.25719L3.71807 0.740563C3.6636 0.522408 3.54207 0.33052 3.37329 0.196152C3.2045 0.0617843 2.9984 -0.00714653 2.78855 0.000586462H0.929516C0.682993 0.000586462 0.446567 0.10594 0.272249 0.29347C0.0979309 0.481001 0 0.735347 0 1.00055C0 1.26576 0.0979309 1.52011 0.272249 1.70764C0.446567 1.89517 0.682993 2.00052 0.929516 2.00052H2.08212L4.64758 12.2602C4.70205 12.4784 4.82358 12.6702 4.99236 12.8046C5.16115 12.939 5.36725 13.0079 5.5771 13.0002H13.9427C14.1144 12.9996 14.2826 12.9479 14.4286 12.8509C14.5746 12.7538 14.6928 12.6151 14.77 12.4502L17.8188 5.8904C17.951 5.59242 18.0125 5.26389 17.9979 4.93411C17.9833 4.60434 17.893 4.28358 17.7352 4.00046Z" fill="#979797"/>
<path d="M5.00037 17.9999C5.75349 17.9999 6.36401 17.3284 6.36401 16.5C6.36401 15.6716 5.75349 15 5.00037 15C4.24724 15 3.63672 15.6716 3.63672 16.5C3.63672 17.3284 4.24724 17.9999 5.00037 17.9999Z" fill="#979797"/>
<path d="M14.0902 17.9999C14.8433 17.9999 15.4539 17.3284 15.4539 16.5C15.4539 15.6716 14.8433 15 14.0902 15C13.3371 15 12.7266 15.6716 12.7266 16.5C12.7266 17.3284 13.3371 17.9999 14.0902 17.9999Z" fill="#979797"/>
</svg>
