<svg xmlns="http://www.w3.org/2000/svg" width="40" height="40" viewBox="0 0 40 40">
    <path fill="#FF8204" d="M14.025 26.42l.003.204c.098 2.257-2.694 3.434-4.23 1.76-.623-.675-1.094-1.489-1.398-2.439l-.08-.267c-.276-.982-.349-2-.225-2.982l.01-.06-.062.054c-.576.535-1.04 1.157-1.392 1.856l-.145.304c-.92 2.068-3.94 1.973-4.627-.254-.504-1.62-.546-3.344-.07-5.178l.086-.314c.242-.831.576-1.622.991-2.355l.089-.15-.085-.034c-1.117-.484-1.883-1.737-1.466-3.123.4-1.36 1.12-2.62 2.187-3.754 2.642-2.816 6.473-4.016 9.998-2.935l.377.124c.248.088.493.185.731.293l.136.064.098-.16c.214-.333.449-.655.704-.965 2.374-2.883 6.211-4.05 9.918-3.186 1.544.361 2.848 1.043 3.935 2.014l.13.125c.917.933.905 2.29.268 3.24l-.081.114.274.146c.754.414 1.465.93 2.113 1.537 1.406 1.317 2.282 2.844 2.694 4.557.078.327.09.645.046.944l-.033.174-.076-.008.06.008.015.002.001-.002.376.046c1.483.145 2.595 1.365 2.695 2.82l.007.176c.044 3.22-.355 6.744-1.488 10.059-1.716 5.02-4.861 8.623-9.71 10.013-.524.15-1.076.15-1.603 0-4.846-1.39-7.992-4.994-9.707-10.014-.4-1.17-.708-2.367-.938-3.568l-.092-.505c-.286.53-.425 1.07-.434 1.618zm12.368-12.283c-.235-.183-.553-.183-.788 0-1.121.872-4.529 3.256-8.705 3.673-.502.05-.888.495-.897 1.034-.05 3.518.478 15.463 9.745 18.12.164.048.338.048.502 0 8.785-2.517 9.717-13.386 9.75-17.506l-.003-.614c-.006-.54-.395-.985-.897-1.034-3.796-.38-6.958-2.384-8.345-3.4zm4.24 8.213c.466.445.484 1.183.04 1.65l-.04.04-4.84 4.61c-.293.279-.685.393-1.059.344-.346.013-.697-.108-.966-.365l-2.39-2.276c-.48-.457-.499-1.217-.041-1.697l.04-.041c.512-.487 1.315-.487 1.826 0l1.637 1.56 4.018-3.825c.497-.473 1.278-.473 1.774 0zM17.197 7.381c-.691.84-1.185 1.783-1.483 2.77-.765-.658-1.672-1.173-2.692-1.486-2.842-.871-5.878.18-7.954 2.392-.898.956-1.433 1.955-1.73 2.96-.155.515.419.949.867.657 1.92-1.25 4.367-1.756 7.2-.988l.233.067c-.845-.045-1.712.053-2.573.312-2.66.797-4.614 3.129-5.321 5.855-.408 1.571-.32 2.914.045 4.087.131.426.706.441.889.03.972-2.187 2.842-4.028 5.784-4.935 1.263-.388 2.45-.52 3.547-.445l-.005.08c-.985.186-1.928.68-2.675 1.477-1.268 1.353-1.588 3.365-1.026 5.12.227.708.563 1.26.966 1.698.27.293.777.08.76-.322-.06-1.404.417-2.88 1.653-4.225.141-.153.284-.297.43-.43l-.028-.337c-.07-.987-.095-1.96-.082-2.907.025-1.53 1.162-2.84 2.698-2.991 2.881-.288 5.601-1.648 7.676-3.262l.162-.116c.941-.626 2.178-.587 3.08.115 1.51 1.171 3.348 2.206 5.34 2.797.02-.071.022-.15.002-.23-.295-1.229-.92-2.445-2.116-3.566-2.013-1.886-4.867-2.734-7.515-1.894-.857.27-1.636.681-2.322 1.197l.16-.186c2.003-2.28 4.351-3.24 6.64-3.257.497-.004.738-.659.367-.99-.784-.7-1.773-1.257-3.056-1.557-2.895-.676-5.99.165-7.92 2.51z"/>
</svg>
