<svg xmlns="http://www.w3.org/2000/svg" width="40" height="40" viewBox="0 0 40 40">
    <path fill="#FF8204" d="M7 31c0 .513.386.936.883.993L8 32h4c.552 0 1-.448 1-1H7zm20 0c0 .513.386.936.883.993L28 32h4c.552 0 1-.448 1-1h-6zm10-4H3c-.552 0-1 .448-1 1s.448 1 1 1h34c.552 0 1-.448 1-1s-.448-1-1-1zm-4-6H7c-1.598 0-2.904 1.249-2.995 2.824L4 24v1h32v-1c0-1.598-1.249-2.904-2.824-2.995L33 21zm-3-11H10c-1.598 0-2.904 1.249-2.995 2.824L7 13v6h2.126C9.044 18.68 9 18.347 9 18c0-2.142 1.684-3.891 3.8-3.995L13 14h2c2.21 0 4 1.79 4 4 0 .346-.044.68-.126 1h2.252c-.082-.32-.126-.654-.126-1 0-2.142 1.684-3.891 3.8-3.995L25 14h2c2.21 0 4 1.79 4 4 0 .346-.044.68-.126 1H33v-6c0-1.598-1.249-2.904-2.824-2.995L30 10zm-15 6h-2c-1.105 0-2 .895-2 2 0 .364.097.706.268 1h5.464l.079-.15c.121-.258.189-.546.189-.85 0-1.105-.895-2-2-2zm12 0h-2c-1.105 0-2 .895-2 2 0 .364.097.706.268 1h5.464l.079-.15c.121-.258.189-.546.189-.85 0-1.105-.895-2-2-2zm5.176 17.995L32 34h-4c-1.657 0-3-1.343-3-3H15c0 1.598-1.249 2.904-2.824 2.995L12 34H8c-1.657 0-3-1.343-3-3H3c-1.657 0-3-1.343-3-3 0-1.306.835-2.418 2-2.83V24c0-2.05 1.234-3.813 3-4.584V13c0-2.689 2.122-4.882 4.783-4.995L10 8h20c2.689 0 4.882 2.122 4.995 4.783L35 13v6.416c1.704.745 2.912 2.41 2.995 4.367L38 24v1.171c1.166.412 2 1.523 2 2.829 0 1.657-1.343 3-3 3h-2c0 1.598-1.249 2.904-2.824 2.995z"/>
</svg>
