<svg xmlns="http://www.w3.org/2000/svg" width="40" height="40" viewBox="0 0 40 40">
    <path fill="#FF8204" d="M9.445 8.744c5.01-3.01 16.623-2.954 21.385.17 1.28.842 2.321 2.398 3.271 4.562l.067.157h1.962c.794 0 1.549.33 2.094.908l.132.15c.542.666.755 1.537.586 2.391l-.49 2.359c-.117.582-.407 1.092-.808 1.483l-.04.035.071.202c.232.709.364 1.453.39 2.212l.006.325c-.01 1.791-.594 3.51-1.697 4.888l-.162.193.001 2.446c0 1.761-1.383 3.2-3.118 3.297l-.188.006h-3.052c-1.572 0-2.89-1.1-3.224-2.57l-.014-.065H13.381l-.012.064c-.32 1.413-1.548 2.482-3.037 2.565l-.187.006H7.093c-1.824 0-3.306-1.479-3.306-3.303v-2.5c-1.15-1.336-1.794-3.03-1.853-4.858l-.004-.305c.004-.89.151-1.763.435-2.588l.012-.032-.165-.17c-.286-.322-.502-.713-.62-1.148l-.042-.172-.488-2.362c-.18-.85.038-1.735.582-2.398.545-.67 1.363-1.059 2.227-1.059h1.962l.073-.166c.905-2.054 1.88-3.548 3.066-4.414l.2-.138zm20.286 1.842c-4.183-2.745-15.278-2.745-19.46 0-1.21.795-2.27 2.903-3.091 5.047H3.87l-.11.008c-.221.028-.423.14-.564.313-.165.201-.231.468-.177.724l.49 2.369.03.107c.119.346.448.585.822.585h.98l-.183.221c-.822 1.05-1.222 2.33-1.228 3.61-.006 1.695.639 3.227 1.819 4.31l.038.031v3.314l.007.133c.067.656.623 1.17 1.299 1.17h3.052l.133-.007c.659-.067 1.173-.623 1.173-1.296v-1.332h17.098v1.332l.007.133c.067.656.623 1.17 1.3 1.17h3.051l.133-.007c.657-.067 1.173-.623 1.173-1.296v-3.249l.214-.206c1.106-1.123 1.636-2.603 1.644-4.081.005-1.42-.475-2.84-1.477-3.952h1.046l.111-.007c.365-.046.667-.318.741-.686l.491-2.368.015-.11c.015-.219-.051-.438-.193-.612-.167-.202-.415-.32-.675-.32h-3.309l-.118-.307c-.8-2.04-1.82-3.984-2.972-4.74zm-18.796 8.822c2.21 0 4 1.79 4 4s-1.79 4-4 4c-2.208 0-4-1.79-4-4s1.792-4 4-4zm18.168 0c2.21 0 4 1.79 4 4s-1.79 4-4 4c-2.208 0-4-1.79-4-4s1.792-4 4-4zm-18.168 2c-1.104 0-2 .895-2 2s.896 2 2 2c1.106 0 2-.895 2-2s-.894-2-2-2zm18.168 0c-1.104 0-2 .895-2 2s.896 2 2 2c1.105 0 2-.895 2-2s-.894-2-2-2z"/>
</svg>
