<svg xmlns="http://www.w3.org/2000/svg" width="90" height="90" viewBox="0 0 90 90">
    <defs>
        <filter id="prefix__a">
            <feColorMatrix in="SourceGraphic" values="0 0 0 0 1.000000 0 0 0 0 0.509804 0 0 0 0 0.015686 0 0 0 1.000000 0"/>
        </filter>
        <filter id="prefix__b">
            <feColorMatrix in="SourceGraphic" values="0 0 0 0 1.000000 0 0 0 0 0.509804 0 0 0 0 0.015686 0 0 0 1.000000 0"/>
        </filter>
    </defs>
    <g fill="none" fill-rule="evenodd">
        <path fill="#222" fill-rule="nonzero" d="M55.012 9.698c2.14-.546 4.318.747 4.864 2.888.082.323.124.655.124.988V19h-2v-5.426c0-.111-.01-.222-.028-.331l-.034-.163c-.273-1.07-1.362-1.717-2.432-1.444L26.619 19H24c-2.21 0-4 1.79-4 4v-1.268c0-1.828 1.24-3.424 3.012-3.876z"/>
        <path fill="#222" fill-rule="nonzero" d="M66 19H24c-2.21 0-4 1.79-4 4v52c0 2.21 1.79 4 4 4h42c2.21 0 4-1.79 4-4V23c0-2.21-1.79-4-4-4zm0 2c1.105 0 2 .895 2 2v52c0 1.105-.895 2-2 2H24c-1.105 0-2-.895-2-2V23c0-1.105.895-2 2-2h42z"/>
        <path fill="#222" fill-rule="nonzero" d="M58 69h-1c-.828 0-1.5.672-1.5 1.5S56.172 72 57 72h1c.828 0 1.5-.672 1.5-1.5S58.828 69 58 69zm-6 0h-1c-.828 0-1.5.672-1.5 1.5S50.172 72 51 72h1c.828 0 1.5-.672 1.5-1.5S52.828 69 52 69zm-6 0h-1c-.828 0-1.5.672-1.5 1.5S44.172 72 45 72h1c.828 0 1.5-.672 1.5-1.5S46.828 69 46 69zm-6 0h-1c-.828 0-1.5.672-1.5 1.5S38.172 72 39 72h1c.828 0 1.5-.672 1.5-1.5S40.828 69 40 69zm-6 0h-1c-.828 0-1.5.672-1.5 1.5S32.172 72 33 72h1c.828 0 1.5-.672 1.5-1.5S34.828 69 34 69z"/>
        <g filter="url(#prefix__a)">
            <path fill="#222" fill-rule="nonzero" d="M42.46 34.215C35.31 35.441 30 41.674 30 49c0 8.273 6.727 15 15 15s15-6.727 15-15c0-.815-.065-1.621-.195-2.414-.308-1.888-2.838-2.307-3.738-.619l-.118.218c-.345.629-.646 1.096-.884 1.404l-.101.124-.133-.12c-1.487-1.284-3.298-1.37-4.528.099-.67.8-1.016 1.934-1.136 3.225l-.07.952c-.1 1.324-.21 2.114-.456 3.09-.334 1.325-.82 1.83-1.405 1.992-.12.033-.245.049-.38.049-.517 0-1.11-.257-1.433-.578-.37-.368-1.449-3.582-1.624-4.898l-.015-.139c-.032-.35-.156-.687-.36-.975l-.11-.147c-.325-.418-.803-.862-1.776-1.682l-1.793-1.495c-.408-.344-.722-.616-.971-.841l-.385-.363.27-.049c.886-.142 2.206-.195 4.483-.201h.648c1.792 0 3.156-.887 4.072-2.207.718-1.036.311-2.47-.844-2.974l-.505-.216c-.857-.36-1.79-.72-2.786-1.065l-.373-.126-.006.018c.132-.368.456-.913 1.028-1.648 1.12-1.44-.117-3.507-1.917-3.199zm.337 1.972c-1.47 1.89-1.599 2.82-1.449 3.467.132.573.55 1.013 1.146 1.21 1.6.53 2.903 1.062 3.725 1.42-.426.614-1.194 1.347-2.431 1.347l-1.29.004c-4.168.028-6.498.26-6.498 1.989 0 .824.734 1.557 2.788 3.27l1.204 1c.761.64 1.563 1.337 1.8 1.672.123 1.362 1.33 5.389 2.222 6.276.622.617 1.698 1.159 2.842 1.158.302 0 .607-.037.911-.121.956-.263 2.22-1.072 2.814-3.433.32-1.27.44-2.447.513-3.453l.045-.645c.118-1.811.84-3.69 2.459-2.177l.123.12c1.393 1.41 2.594.46 4.11-2.382.111.68.169 1.379.169 2.091 0 7.168-5.832 13-13 13s-13-5.832-13-13c0-6.418 4.674-11.764 10.797-12.813z"/>
        </g>
        <g filter="url(#prefix__b)">
            <path fill="#222" fill-rule="nonzero" d="M54 25c4.411 0 8 3.457 8 7.706 0 1.35-.41 2.836-1.217 4.417-.633 1.238-1.511 2.54-2.611 3.872-1.862 2.253-3.696 3.797-3.773 3.861-.114.096-.257.144-.399.144-.142 0-.285-.048-.399-.144-.077-.064-1.911-1.608-3.773-3.861-1.1-1.332-1.978-2.634-2.61-3.872C46.41 35.542 46 34.056 46 32.706 46 28.457 49.589 25 54 25zm0 4c-2.21 0-4 1.79-4 4s1.79 4 4 4 4-1.79 4-4-1.79-4-4-4z"/>
        </g>
    </g>
</svg>
