<svg xmlns="http://www.w3.org/2000/svg" width="40" height="40" viewBox="0 0 40 40">
    <path fill="#FF8204" d="M28.575 4.505L23.303 10l-13.8-4.567c-.717-.237-1.508-.05-2.042.485L4.312 9.065l-.108.117c-.788.922-.58 2.351.474 3l10.39 6.397-3.88 4.045-3.018-.496c-.636-.104-1.283.104-1.739.56l-2.845 2.845-.106.115c-.906 1.052-.482 2.717.859 3.187l5.055 1.77 1.77 5.056c.488 1.39 2.26 1.795 3.303.753l2.845-2.845.118-.13c.373-.443.537-1.03.442-1.609l-.497-3.019 4.044-3.88 6.399 10.391c.677 1.1 2.204 1.279 3.117.366l3.148-3.149.117-.127c.444-.528.587-1.253.368-1.915L30 16.696l5.495-5.271c1.978-1.899 2.01-5.053.072-6.992-1.94-1.939-5.093-1.906-6.992.072zm1.443 1.385c1.123-1.17 2.988-1.189 4.134-.042 1.101 1.1 1.128 2.863.093 3.996l-.135.138-6.404 6.145 4.963 14.998-3.148 3.148-7.697-12.5-6.592 6.325.666 4.056L13.052 35l-2.088-5.964L5 26.948l2.846-2.846 4.056.666 6.326-6.592L5.727 10.48l3.148-3.148 14.998 4.963 6.145-6.404z"/>
</svg>
