<svg xmlns="http://www.w3.org/2000/svg" width="90" height="90" viewBox="0 0 90 90">
    <g fill="none">
        <path fill="#FF8204" d="M62.24 60.703l.931.316c.783.27 1.637-.146 1.907-.93.27-.782-.146-1.636-.93-1.906l-.959-.325c-.785-.263-1.635.162-1.898.947-.262.786.162 1.636.948 1.898zm5.532 2.046l.901.379c.762.327 1.644-.026 1.97-.787.327-.761-.025-1.643-.787-1.97-.309-.133-.623-.265-.942-.396-.766-.316-1.642.05-1.958.816-.316.766.05 1.642.816 1.958zm5.286 2.494c.287.157.566.315.838.473.717.416 1.635.172 2.05-.544.417-.716.173-1.634-.543-2.05-.294-.171-.596-.341-.904-.51-.727-.398-1.638-.132-2.036.595-.398.727-.132 1.638.595 2.036zm4.715 3.166c.24.205.467.41.684.617.6.571 1.549.548 2.12-.052.572-.6.549-1.549-.051-2.12-.255-.243-.523-.485-.802-.724-.63-.538-1.576-.465-2.115.164-.539.63-.465 1.577.164 2.115zm3.262 4.18c.106.258.194.518.266.778.22.799 1.046 1.267 1.845 1.047.799-.22 1.267-1.046 1.047-1.845-.103-.375-.23-.746-.38-1.114-.313-.767-1.189-1.135-1.956-.822-.767.313-1.135 1.188-.822 1.955zm.102 4.818c-.089.267-.192.536-.31.809-.33.76.018 1.643.778 1.973.76.33 1.644-.019 1.974-.778.153-.354.288-.707.405-1.06.261-.786-.165-1.635-.951-1.896-.787-.26-1.635.166-1.896.952zm-3.147 1.946c-.284-.003-.585-.017-.904-.04-.826-.062-1.546.557-1.608 1.383-.062.826.558 1.546 1.384 1.608.38.029.745.045 1.094.049.829.01 1.508-.655 1.517-1.483.01-.829-.655-1.508-1.483-1.517zm-5.596-.845c-.308-.075-.623-.154-.943-.237-.802-.209-1.621.271-1.83 1.073-.209.802.272 1.621 1.073 1.83.338.088.67.171.998.25.805.194 1.615-.301 1.81-1.107.193-.805-.302-1.615-1.108-1.81zm-5.664-1.654l-.932-.317c-.783-.27-1.637.144-1.908.927-.271.783.144 1.637.927 1.908l.962.327c.785.263 1.635-.161 1.898-.947.262-.785-.162-1.635-.947-1.898zm-5.603-2.057l-.916-.368c-.768-.313-1.643.056-1.955.823-.313.767.056 1.642.823 1.955l.939.378c.77.306 1.642-.07 1.948-.84.306-.77-.07-1.641-.84-1.948zm-5.379-2.296l-.893-.415c-.75-.352-1.643-.03-1.996.719-.353.75-.031 1.643.718 1.996.302.142.61.284.922.428.753.345 1.643.014 1.988-.74.345-.752.014-1.643-.739-1.988zm-23.55-3.937l-.98.267c-.798.222-1.265 1.049-1.043 1.847.222.798 1.049 1.265 1.847 1.043l.95-.259c.8-.213 1.276-1.035 1.062-1.836-.214-.8-1.036-1.276-1.836-1.062zm-5.846 1.724l-.794.254c-.08.026-.155.052-.23.08-.777.288-1.172 1.151-.884 1.928.288.776 1.152 1.172 1.928.884l.105-.036.782-.25c.79-.25 1.226-1.094.976-1.883-.25-.79-1.094-1.227-1.883-.977zm-3.725 6.22l.08.99c.06.826.78 1.446 1.606 1.386.826-.061 1.446-.78 1.386-1.606l-.081-1.005c-.066-.826-.788-1.443-1.614-1.378-.826.065-1.442.788-1.377 1.614zm-.86 4.268c-.198.107-.397.207-.61.306-.752.348-1.08 1.24-.732 1.991.348.752 1.24 1.08 1.992.731.27-.125.527-.254.787-.395.102-.056.195-.11.286-.168.7-.442.91-1.368.469-2.069-.416-.66-1.26-.884-1.943-.54l-.25.144zm-5.069 1.675c-.305.062-.62.123-.944.18-.815.146-1.358.926-1.212 1.741.146.816.925 1.359 1.74 1.213.35-.063.69-.128 1.02-.196.812-.167 1.335-.96 1.168-1.772-.167-.811-.96-1.333-1.772-1.166zm-5.768.799c-.32.028-.646.054-.977.079-.827.061-1.446.78-1.385 1.607.061.826.781 1.446 1.607 1.384l1.016-.082c.825-.072 1.436-.799 1.364-1.624-.072-.826-.8-1.436-1.625-1.364z"/>
        <g>
            <path fill="#222" d="M26 0C11.664 0 0 11.61 0 25.89c0 4.514 1.308 9.417 3.86 14.578 1.964 3.972 4.677 8.13 8.062 12.365 2.501 3.128 5.16 6.051 7.818 8.698.809.806 1.573 1.541 2.279 2.2l1.013.927c.19.17.345.307.463.41.702.607 1.591.932 2.505.932.913 0 1.803-.325 2.505-.933l.464-.41c.19-.17.412-.372.664-.604l.706-.658c.604-.57 1.247-1.193 1.921-1.864 2.657-2.647 5.317-5.57 7.818-8.698 3.385-4.235 6.098-8.393 8.062-12.365C50.692 35.307 52 30.404 52 25.89 52 11.753 40.568.232 26.43.003L26 0zm0 2c13.234 0 24 10.717 24 23.89 0 4.183-1.229 8.79-3.652 13.691-1.897 3.837-4.533 7.875-7.833 12.003l-.53.659C32.586 58.868 27.42 63.36 27.196 63.555c-.343.297-.77.445-1.197.445-.373 0-.747-.114-1.064-.341l-.201-.164c-.688-.601-5.932-5.259-11.25-11.91-3.3-4.129-5.936-8.167-7.833-12.004C3.23 34.68 2 30.073 2 25.89 2 12.849 12.552 2.215 25.604 2.003L26 2z" transform="translate(19 12)"/>
            <path fill="#FF8204" d="M22.45 10.754l-.46.465c-.633.643-1.521.966-2.42.881l-.708-.067c-2.76-.22-5.162 1.826-5.382 4.57l-.052.651c-.072.9-.545 1.719-1.288 2.231l-.598.413C9.3 21.493 8.773 24.606 10.37 26.85l.379.532c.522.735.687 1.666.447 2.536l-.189.686c-.697 2.68.901 5.401 3.566 6.094l.632.165c.873.227 1.598.835 1.973 1.655l.303.66c1.182 2.487 4.156 3.545 6.642 2.363l.59-.28c.815-.388 1.76-.388 2.576 0l.656.31c2.504 1.146 5.462.045 6.607-2.459l.272-.594c.375-.82 1.1-1.428 1.973-1.655l.703-.184c2.654-.732 4.212-3.477 3.48-6.131l-.174-.63c-.24-.87-.075-1.801.447-2.536l.421-.592c1.563-2.267.992-5.372-1.275-6.934l-.538-.371c-.743-.512-1.216-1.331-1.288-2.23l-.057-.71c-.261-2.756-2.694-4.767-5.435-4.507l-.65.062c-.899.085-1.787-.238-2.42-.88l-.51-.518c-1.962-1.932-5.118-1.909-7.05.052zm5.645 1.373l.49.496c1.055 1.071 2.537 1.61 4.034 1.468l.65-.061c1.582-.15 2.994.964 3.232 2.515l.025.218.053.651c.12 1.499.908 2.864 2.146 3.718l.538.37c1.305.9 1.671 2.653.866 3.994L40 25.69l-.378.533c-.872 1.225-1.146 2.777-.746 4.227l.174.63c.423 1.532-.43 3.115-1.916 3.62l-.21.063-.633.164c-1.455.378-2.662 1.392-3.288 2.76l-.272.593c-.685 1.5-2.457 2.159-3.956 1.473l-.63-.299c-1.358-.645-2.934-.645-4.292 0l-.59.28c-1.434.682-3.139.12-3.895-1.252l-.101-.202-.272-.594c-.626-1.367-1.833-2.38-3.288-2.76l-.632-.163c-1.596-.415-2.553-2.045-2.138-3.641l.185-.672c.4-1.45.126-3.002-.746-4.227L12 25.69c-.919-1.291-.663-3.064.552-4.048l.186-.14.538-.37c1.238-.854 2.026-2.219 2.146-3.718l.053-.65c.126-1.586 1.469-2.782 3.038-2.747l.22.013.65.061c1.496.142 2.978-.397 4.033-1.468l.459-.465c1.157-1.174 3.047-1.188 4.221-.031z" transform="translate(19 12)"/>
            <path fill="#FF8204" d="M31.798 33v-3.146h-3.302v-11.7h-3.562c-.087.156-.29.368-.611.637-.32.269-.698.542-1.131.819-.433.277-.875.516-1.326.715-.45.2-.832.299-1.144.299v3.25c.33 0 .706-.06 1.131-.182.425-.121.836-.277 1.235-.468.399-.19.767-.394 1.105-.611.338-.217.585-.429.741-.637v7.878h-3.692V33h10.556z" transform="translate(19 12)"/>
        </g>
    </g>
</svg>
