<svg xmlns="http://www.w3.org/2000/svg" width="90" height="90" viewBox="0 0 90 90">
    <g fill="none" fill-rule="evenodd">
        <path fill="#222" fill-rule="nonzero" d="M56.032 22.88c-3.327 0-6.396 1.047-9.07 3.093l-.396.312c-.52.424-1.02.883-1.498 1.376l-.068.072-.068-.072c-.597-.616-1.229-1.18-1.893-1.688-2.674-2.046-5.744-3.094-9.071-3.094-4.414 0-8.496 1.758-11.465 4.943C19.593 30.945 18 35.184 18 39.742c0 4.543 1.653 8.696 5.098 12.936l.328.398c2.455 2.93 4.95 5.243 11.108 10.46l5.327 4.507c.648.553 1.246 1.067 1.898 1.63.897.778 2.049 1.206 3.241 1.206 1.192 0 2.343-.428 3.242-1.206l2.014-1.73 6.282-5.317c5.388-4.589 7.729-6.796 10.036-9.55C70.243 48.698 72 44.427 72 39.742c0-4.559-1.593-8.797-4.503-11.92-2.969-3.185-7.051-4.943-11.465-4.943zm0 2c3.862 0 7.413 1.529 10.001 4.305C68.591 31.93 70 35.68 70 39.742c0 4.183-1.575 8.012-4.959 12.05-2.542 3.034-6.018 6.106-10.05 9.528l-4.154 3.507c-1.238 1.047-2.555 2.167-3.905 3.335-.534.462-1.22.717-1.932.717s-1.398-.255-1.933-.718l-1.337-1.15c-.44-.378-.876-.75-1.304-1.113L35.01 61.32c-4.033-3.422-7.509-6.495-10.05-9.53C21.575 47.755 20 43.926 20 39.743c0-4.063 1.409-7.812 3.966-10.557 2.588-2.776 6.14-4.306 10.002-4.306 2.886 0 5.529.903 7.856 2.683 1.174.898 2.238 1.998 3.176 3.28.938-1.283 2.002-2.382 3.176-3.28 2.327-1.78 4.97-2.683 7.856-2.683z"/>
        <path fill="#FF8204" fill-rule="nonzero" d="M61.827 32.902c-2.07-2.271-4.912-3.523-8.001-3.523-2.309 0-4.424.739-6.285 2.195-.94.735-1.79 1.634-2.541 2.684-.75-1.05-1.602-1.949-2.541-2.684-1.861-1.456-3.976-2.195-6.285-2.195-3.089 0-5.93 1.252-8.001 3.523C26.127 35.148 25 38.215 25 41.54c0 3.422 1.26 6.555 3.967 9.858 2.422 2.956 5.901 5.956 9.931 9.43 1.376 1.186 2.936 2.531 4.556 3.964.428.379.977.587 1.546.587.57 0 1.118-.208 1.546-.587 1.62-1.433 3.18-2.778 4.557-3.965 4.029-3.473 7.509-6.473 9.93-9.429C63.74 48.095 65 44.962 65 41.54c0-3.325-1.127-6.392-3.173-8.638z"/>
        <path fill="#FF8204" d="M44.796 73.588c-.05.665-.05 1.332 0 1.997 0 0-.6 2.171-.6 2.345-.005 1.68-1.084 3.22-2.8 3.995-1.1.695-2-3.648-2-3.995-.256-1.73-.256-3.48 0-5.21 0 0 .6 0 1-.522 1.6-.52 4 0 4.4 1.39zM65.722 65c1.273.692 2.447 1.503 3.5 2.417.8.916 1.3.916 2 2 .7 1.083 0 1.166.5 1.333.208 1.411.208 2.839 0 4.25-3.246-1.966-5.857-4.571-7.6-7.583.5 0 0-.917.9-1.25l.7-1.167zm-47.674-2c.675 0 1.097.865 1.434 1.298h.59v3.722l.328-.123-.028.023c-.857.68-2.334 2.214-2.746 2.696-.59.692-7.674 6.231-6.494 1.471l.422-1.038 3.205-3.981v-1.039c0-.346.759-.433 1.012-.692.253-.26 0 0 0-.606.547-.824 1.35-1.435 2.277-1.731zm56.485-17.318c2.203.1 11.304 1.4 12.454 4.6h-.192c.273.566.273 1.234 0 1.8-3.066 1-4.31-1.4-6.418-2.2-2.108-.8-5.078 0-6.323-1-1.246-1-1.725-3.3.479-3.2zM15 47.296s-1.442 1.8-1.73 1.6c-.29-.2-1.25-1.3-1.732-1.4-1.683.002-3.36.203-5 .6-.452-1.033-.966-2.035-1.538-3 .786-1.197 2.07-1.938 3.462-2 2.802-.13 5.395 1.536 6.538 4.2zm66.207-25.093c.65 0 1.113 0 1.577 1.2 1.484 3.2-5.1 5.8-6.863 6.9-1.762 1.1-1.205 1.3-1.854 1.5h-.928c-.185-1.057-.185-2.143 0-3.2 1.113-1.4 5.38-6.6 8.068-6.4zM9.052 24.06c4.2 0 7.2 1 4.9 6-1.2-.6-2.6-1.8-3.6-2.2-1.392-.217-2.809-.217-4.2 0-1.06 0-1.006-2.603-.732-3.327l.032-.073.3-.4c1.094-.163 2.206-.163 3.3 0zM50.943 8c2.9 1.224 2.6 5.597 1.1 8.746 0 .874 0 1.749-1.4 2.099-1.4.35-1 0-1.8 0 .035-.612.035-1.225 0-1.837l1.2-8.133s1.1 0 1.2-.525l-.3-.35zM25.55 10.008l.1.4c3.4-1.6 5.1 5.6 5.4 7.5-.796.112-1.604.112-2.4 0-1.179 0-5.056-6.651-3.209-7.84l.109-.06z"/>
        <path fill="#FFF" fill-rule="nonzero" d="M37 34.446c-3.788.544-6.714 4.142-6.714 8.5 0 .62.059 1.224.171 1.806-.345.461-.67.945-.969 1.449-.316-1.02-.488-2.115-.488-3.255 0-5.169 3.529-9.421 8.055-9.946-.036.477-.055.959-.055 1.446z"/>
    </g>
</svg>
