<svg xmlns="http://www.w3.org/2000/svg" width="90" height="90" viewBox="0 0 90 90">
    <g fill="none">
        <path fill="#222" d="M73 8c1.054 0 1.918.816 1.995 1.85L75 10v56c0 1.054-.816 1.918-1.851 1.995l-.15.005-58.384-.011C6.288 67.71 1.493 64.45 1.035 58.41c.528.54 1.358.71 2.073.505.662 4.397 4.39 6.75 11.184 7.059l.39.015L73 66V10H17.5V8H73z" transform="translate(6.5 11)"/>
        <path fill="#FF8204" d="M50.067 17.296c-2.474.153-4.41.714-5.78 1.779l-.382.303-.171.143c-.153.131-.292.259-.421.39-.444.45-.74.864-.858 1.459l-.036.237c-.064.598.121 1.174.51 1.68l.074.092c.273.316.57.61.887.878l.283.263.224.219.057.06-.33-.012-.745-.05h-.041c-1.396-.093-2.873-.018-4.328.227-.846.108-1.686.57-2.29 1.28-.071.084-.136.174-.193.268l-.096.178c-.27.54-.342 1.159-.208 1.747l.013.045c.235 1.033.882 1.925 1.793 2.455.153.089.317.157.488.203l.27.063c.454.09.919.105 1.377.043l.124-.022.34-.029-.085-.01c.833.074 1.633.392 2.309.924l.146.104.669.445c.228.15.422.272.62.384 1.01.57 1.9.812 2.935.405.072-.029.142-.061.21-.098l.204-.117c.466-.286.867-.669 1.179-1.121l.046-.074-.012.017c.118-.162.25-.313.393-.45l.11-.089c.156-.111.34-.192.537-.232l.125-.019-.029.096c-.066.196-.162.422-.288.669-.322.632-.772 1.29-1.215 1.847-.577.754-1.28 1.327-2.076 1.705-.543.254-1.16.312-1.747.162-.842-.26-1.742-.65-2.595-1.138-3.386-1.77-4.946-2.205-7.138-1.06l-.228.12c-1.872 1.038-3.133 2.989-3.354 5.185l-.022.283.012-.085c-.118.77-.14 1.759.096 2.826.437 1.98 1.685 3.497 3.828 3.945l.621.134c3.483.778 4.537 1.515 5.024 3.548.112.501.206 1.023.277 1.551l.063.53c.375 3.096 1.036 4.33 3.503 4.974 2.281.597 3.474.684 4.688-.12 1.032-.682 1.595-1.858 1.963-3.603l.063-.314c.735-3.838 1.398-5.503 2.216-6.007l.077-.044c1.556-.813 2.36-3.526 1.746-5.263-.06-.17-.104-.278-.194-.444-.617-1.13-1.85-1.532-3.212-1.176l-.105.026-.155.034-.123.017-.015-.123c-.055-.597.189-1.181.631-1.528l-.069.023c.06-.03.123-.053.186-.068 1.834-.435 5.072.628 6.082 2.381l.094.178c1.318 2.756 4.494 3.707 7.586 3.332.867-.105 1.566-.762 1.725-1.621l.154-.853c1.615-9.284 1.794-19.92-.79-22.222-2.252-2.008-7.478-2.528-16.205-1.938l-1.022.073zm15.897 3.358c2.104 1.876 1.29 14.252 0 21.218-1.685.204-4.532-.1-5.54-2.208-1.565-3.28-6.391-4.13-8.44-3.645-.216.051-.427.128-.627.229-1.328.856-1.957 2.524-1.545 4.097l.065.159c.221.486.869 1.409 2.511 1.065l.21-.05c.817-.213.946.155 1.016.353.318.898-.215 2.524-.788 2.824-1.77.925-2.562 3.431-3.33 7.448-.273 1.428-.655 2.287-1.166 2.625-.595.394-1.579.244-3.078-.148-1.555-.406-1.763-1.188-1.993-3.03l-.027-.216c-.082-.787-.21-1.568-.384-2.339-.859-3.59-3.518-4.409-7.18-5.174-2.486-.52-2.467-3.292-2.391-4.208l.032-.289c.007-.042.01-.084.01-.126.105-1.69 1.073-3.189 2.533-3.921 1.632-.853 3.375.06 5.22 1.024.981.56 2.017 1.01 3.09 1.338 1.037.266 2.129.163 3.103-.293.986-.469 1.863-1.153 2.573-2.004l.429-.546c.76-1.005 2.286-3.28 1.675-4.643-.332-.66-1.02-1.033-1.726-.939-.864-.012-1.702.31-2.354.902-.23.22-.442.461-.63.72-.183.302-.439.546-.743.709-.457.18-1.116-.2-1.7-.584l-.512-.342-.189-.123c-.98-.771-2.149-1.237-3.371-1.344-.217 0-.445.023-.676.047-.333.067-.677.056-1.006-.032-.428-.249-.736-.673-.85-1.17-.052-.168-.03-.35.059-.5.284-.333.674-.547 1.097-.602 1.14-.192 2.295-.267 3.448-.225l.573.029.209.015c1.093.081 2.214.114 2.832-.45.247-.219.398-.535.418-.873.068-1.154-.878-2.011-1.638-2.7-.238-.202-.462-.424-.668-.662-.119-.155-.11-.23-.107-.255.032-.265.473-.655.823-.937l.283-.224c.941-.732 2.385-1.177 4.331-1.337l1.365-.097c8.148-.549 13.066-.07 14.754 1.434zM18.556 32.364c3.349 1.866 6 4.741 7.465 8.115.318.735.297 1.567-.059 2.287-1.28 2.586-2.318 4.044-3.403 4.83l-.142.099-.03.308-.06.805c-.1 1.288-.21 2.065-.487 3.084-.598 2.199-1.968 3.518-3.687 3.956-.4.103-.81.152-1.222.152-.144 0-.288-.006-.432-.018v-2.01c.141.018.286.028.431.028.241 0 .486-.028.729-.09.764-.195 1.775-.794 2.251-2.543.208-.767.31-1.487.373-2.13l.029-.316.06-.81c.092-1.213.19-1.707.643-1.915.565-.26 1.507-.99 3.155-4.318.094-.19.1-.408.016-.603-1.288-2.965-3.633-5.509-6.604-7.164-.29-.161-.652-.144-.92.034l-.096.074-.067.06v-2.205c.683-.157 1.42-.065 2.057.29zm.927-16.708l.266.116.566.255.406.195c.461.21.93.38 1.363.5.325.073.669.044.958-.075 1.954-.822 3.36.405 4.14 2.18l.075.178.023.059c1.033-.162 1.828.355 2.275 1.109l.08.144.067.14c.19.424.276.89.294 1.378.05 1.317-.214 2.426-1.445 2.994-.637.295-2.663.969-4.836 1.626l-.284.085-.856.253c-.948.277-1.818.519-2.561.71l-.31.078-.571.137c-.526.122-.953.205-1.293.247-.252.032-.473.044-.701.028-.21-.015-.416-.052-.639-.135l-.001-5.155c1.348.493.135 1.315.657 3.243.121.477 9.316-2.36 10.557-2.932.401-.186.412-2.098-.16-1.966-1.218.282-1.713-.277-1.89-.597l-.026-.049-.036-.081c-.289-.973-1.025-2.15-1.784-1.83-.683.281-1.448.345-2.175.18-.752-.203-1.477-.48-2.165-.828-1.04-.48-2.033-.939-2.978-.826l.001-2.055c.873-.073 1.76.172 2.983.694z" transform="translate(6.5 11)"/>
        <path fill="#222" d="M13.494 56.857L13.5 57c0 2.667 4 2.667 4 0V8l-.006-.15-.016-.147-.013-.069.003-.023c.021-.202.032-.406.032-.611 0-3.998-3.903-7-8.5-7C4.403 0 .5 3.002.5 7l.008.307.01.152.017.175-.013.07C.507 7.8.5 7.898.5 8v49c0 2.634 3.935 2.682 4 .049l.004-.192C4.576 55.413 6.48 54 9 54c2.502 0 4.38 1.384 4.494 2.857zM9 2c3.59 0 6.5 2.239 6.5 5 0 .343-.045.677-.13 1h.13v49c0-2.761-2.91-5-6.5-5-3.506 0-6.364 2.136-6.495 4.808L2.5 57V8h.13c-.085-.323-.13-.657-.13-1 0-2.761 2.91-5 6.5-5zM41.78 58h-1c-.83 0-1.5.672-1.5 1.5s.67 1.5 1.5 1.5h1c.828 0 1.5-.672 1.5-1.5s-.672-1.5-1.5-1.5zm-6 0h-1c-.83 0-1.5.672-1.5 1.5s.67 1.5 1.5 1.5h1c.828 0 1.5-.672 1.5-1.5s-.672-1.5-1.5-1.5zm-6 0h-1c-.83 0-1.5.672-1.5 1.5s.67 1.5 1.5 1.5h1c.828 0 1.5-.672 1.5-1.5s-.672-1.5-1.5-1.5zm-6 0h-1c-.83 0-1.5.672-1.5 1.5s.67 1.5 1.5 1.5h1c.828 0 1.5-.672 1.5-1.5s-.672-1.5-1.5-1.5z" transform="translate(6.5 11)"/>
    </g>
</svg>
