<svg xmlns="http://www.w3.org/2000/svg" width="97" height="122" viewBox="0 0 97 122">
    <g fill="none">
        <path fill="#FF8204" d="M0 0H97V122H0z"/>
        <g fill="#FFF">
            <path d="M4.558 51.652v1.398c6.095-3.769 18.543-6.367 32.91-6.367 1.646 0 3.276 0 4.86.106v-1.003c-1.523 0-3.214-.091-4.86-.091-14.139 0-26.465 2.4-32.91 5.957m43.621-5.486v.927c9.218.881 16.897 2.857 21.513 5.47v-1.367c-4.799-2.432-12.447-4.286-21.513-5.121M59.119 10.257c.194.127.372.274.533.441.122.167.198.167.305.365.106.197 0 .213.076.243.031.257.031.518 0 .775-.495-.359-.893-.834-1.158-1.383.076 0 0-.167.137-.228l.107-.213zM54.578 11.61c.244-.091.61 0 .67.243-.007.116-.007.233 0 .35 0 0-.09.38-.09.41-.002.294-.166.563-.427.699-.168.121-.305-.638-.305-.7-.039-.302-.039-.608 0-.911 0 0 .091 0 .152-.091M50.312 10.379c0-.106-.503.395-.61.517-.106.121-1.386 1.094-1.173.258l.077-.182.579-.7v-.182c0-.06.137-.076.182-.121.046-.046 0 0 0-.107.1-.144.244-.252.412-.304.122 0 .198.152.259.228h.107v.654M51.973 1.033c.518-.243.777.851.823 1.14-.122.017-.245.017-.366 0-.183 0-.792-1.048-.472-1.2M56.346.517c.441.212.396.972.167 1.52 0 .151 0 .303-.213.364-.213.06-.152 0-.274 0 .005-.106.005-.213 0-.32L56.208.67s.168 0 .183-.092M61.556 2.918c.107 0 .183 0 .26.182.243.486-.839.881-1.128 1.049-.29.167-.198.197-.305.227h-.152c-.03-.16-.03-.325 0-.486.183-.213.883-1.003 1.325-.972M48.819 3.328c.167-.025.336-.025.503 0 .64 0 1.097.152.746.912-.182-.091-.396-.274-.548-.335-.212-.033-.428-.033-.64 0-.168 0-.152-.425-.107-.516M55.995 3.997c.596-.047 1.184.15 1.63.547.71.668 1.055 1.634.93 2.598 0 0-.122.122-.153.183-.259.577-.274 1.048-.898 1.352-.685.407-1.423.714-2.194.912-.35 0-1.935 0-2.103-.304-.38.273-1.097-.866-1.188-1.125-.07-.426-.044-.862.076-1.276.116-.958.681-1.804 1.523-2.28.35-.243.564-.516 1.006-.577.442-.06.975 0 1.432 0M48.94 6.686c.445-.02.856.234 1.037.639 0 0-.229.273-.274.243-.046-.03-.198-.198-.275-.213-.266 0-.532.03-.792.091-.071-.157-.153-.309-.244-.456.125-.182.328-.294.549-.304M62.547 7.826c.043.086.043.188 0 .274-.488.152-.686-.213-1.021-.335-.335-.121-.808 0-1.006-.152-.198-.152-.274-.501.076-.486.35.015 1.798.213 1.981.699" transform="translate(11 15)"/>
            <path d="M40.256 4.817c-.228 0-1.843-.562-3.58 1.809-.51.835-.622 1.854-.305 2.78.198.943 1.112 1.368 0 2.28-.268.297-.672.435-1.066.365-.586-.18-1.156-.403-1.707-.67-2.438-.82-3.306-1.154-5.744-1.944-2.438-.79-4.342-1.763-6.018.501-.714 1.234-1.335 2.52-1.859 3.845-.183.395-.442.805-.838 1.52-1.089-.476-2.27-.7-3.458-.654-.503 0-1.021.289-1.006.562.668-.026 1.332.11 1.935.395-.442.456-2.21-.076-2.438.532.107.228 1.356.335 2.377.547-.38.168-2.3.183-2.224.441-.35.152.182.213.563.365.507.04 1.017.04 1.524 0-.168.38-1.524.562-1.798.82-.274.259 1.31.137 1.204.213 1.219.076 2.361-.547 2.133.167-.366 1.094-.594 2.28.457 1.307 1.215-1.296 2.355-2.66 3.413-4.088 1.203-1.428 1.6-2.902 3.489-3.206.716-.122 2.681 2.097 4.266 2.31-.305.228-.442 2.082-.549 2.507-.32 1.261-.228 5.41-.365 7.72-.216 1.729-.531 3.444-.945 5.136-.472 2.052-3.382 7.355-6.094 7.75-2.172.441-4.381.675-6.598.7-1.588.023-3.17.202-4.723.531-1.188.182-.563 3.04-.259 5.015.198 1.352.092 3.039 1.387 3.358 1.295.32 1.051-2.918 1.325-3.966.09-.58.438-1.088.947-1.383.509-.295 1.124-.345 1.674-.137 1.508.286 3.036.459 4.57.517 3.23.137 5.927 1.368 7.984-1.155 1.067-1.322 3.048-3.206 4.206-4.559.502-.562.152-.425.777-.547.713-.013 1.425.069 2.117.243 1.89.32 2.24.502 7.177 1.08.609 0 1.112 2.689 1.157 3.282.046.592.107 1.793.26 2.765.251 1.332.354 2.688.304 4.042.122 2.006-1.112 3.04 1.158 3.04 1.234 0 1.768-.82 3.962-.775.822 0 3.489 0 3.245-1.064-.777-1.322-4.403-.243-4.967-1.444-.564-1.2 0-4.376 0-5.668 0-1.292.213-1.99.335-3.297.122-1.307 1.28-4.27.457-5.517-.442-.683-2.407-1.185-3.794-1.52l-3.047-.637c-1.02-.259-3.596-.228-3.321-1.52.205-.945.46-1.878.761-2.796.595-1.778 1.417-3.191 1.92-5.045.335.258.366 1.914.533 2.72.074.929.36 1.828.838 2.629 1.22 1.93 1.996 1.626 3.962 1.155 3.946-.958 3.565-.684 6.338-1.277.942.097 1.892.097 2.834 0 0 0 .335-.091.35-.152.168-.456-1.523-.805-1.767-.76.736.02 1.465-.147 2.118-.486.091-.334-1.265-.471-2.057-.289 1.036-.243 2.103-.167 2.362-.881 0-.274-.168-.243-.35-.258h-2.012c.853-.107 2.24-.73 2.103-.942-.823-.624-2.103.243-3.048.09.198-.683.503-.653.518-1.063-.883-.471-1.767.942-2.087 1.52-.533.942-.61 1.246-1.767 1.322-1.158.076-2.332.486-3.23 0-.9-.487-.976-3.04-.884-4.21.167-2.127 1.097-4.407-1.204-5.653-.792-.44-3.885-.835-3.9-1.9 0-.759.411-.303 1.173-.653.892-.433 1.592-1.18 1.965-2.097.374-.743.548-1.57.503-2.4.015-1.526-1.106-2.826-2.62-3.04l-1.052-.228zM9.982 73.732l-3.047-6.276H4.711v6.276H1.663V57.973h6.201c1.338-.098 2.656.37 3.63 1.29.974.919 1.515 2.205 1.49 3.543.052 1.858-1.115 3.534-2.88 4.133l3.535 6.793H9.982zM7.59 60.769H4.68v4.164h2.91c1.153 0 2.088-.932 2.088-2.082S8.743 60.77 7.59 60.77M26.056 72.151c-2.371 2.327-6.175 2.327-8.547 0-1.6-1.595-1.524-3.57-1.524-6.29 0-2.721 0-4.697 1.524-6.292 2.372-2.327 6.176-2.327 8.547 0 1.6 1.595 1.524 3.556 1.524 6.291 0 2.735 0 4.696-1.524 6.291m-2.285-10.728c-.506-.554-1.23-.859-1.98-.836-.755-.02-1.482.285-1.997.836-.594.668-.746 1.398-.746 4.437 0 3.04.152 3.754.746 4.422.509.562 1.238.873 1.996.851.754.023 1.48-.288 1.98-.85.595-.67.778-1.399.778-4.423s-.183-3.769-.777-4.437M36.737 73.868c-1.523.094-3.015-.45-4.12-1.5-1.104-1.049-1.72-2.51-1.7-4.031V57.973h3.047v10.258c0 1.51 1.228 2.735 2.742 2.735 1.515 0 2.743-1.225 2.743-2.735V57.973h3.047v10.394c.02 1.522-.596 2.982-1.7 4.032-1.105 1.05-2.598 1.593-4.12 1.5M56.117 72.075c-1.162 1.207-2.787 1.86-4.464 1.793-1.596.032-3.134-.595-4.251-1.732-1.6-1.52-1.524-3.556-1.524-6.276 0-2.72 0-4.696 1.524-6.291 1.622-1.546 3.964-2.078 6.097-1.386 2.133.692 3.712 2.497 4.111 4.699h-3.047c-.204-1.39-1.445-2.39-2.85-2.295-.749-.015-1.469.289-1.98.836-.594.668-.746 1.398-.746 4.437 0 3.04.152 3.784.746 4.453.514.538 1.235.832 1.98.805.826.04 1.627-.283 2.195-.881.495-.585.75-1.334.716-2.098v-.607h-2.971v-2.569h5.972v2.31c.19 1.743-.362 3.486-1.523 4.802M69.57 73.747L69.57 67.152 64.223 67.152 64.223 73.747 61.13 73.747 61.13 57.973 64.223 57.973 64.223 64.416 69.57 64.416 69.57 57.973 72.663 57.973 72.663 73.747zM10.44 91.496c-1.163 1.207-2.788 1.86-4.465 1.793-1.596.032-3.134-.595-4.25-1.732C.124 90.037.2 88 .2 85.28c0-2.72 0-4.696 1.523-6.291 1.622-1.546 3.964-2.079 6.097-1.387 2.133.693 3.712 2.498 4.112 4.7H8.885c-.196-1.394-1.442-2.397-2.849-2.295-.745-.019-1.462.286-1.965.835-.61.67-.762 1.399-.762 4.438 0 3.039.152 3.784.762 4.452.506.542 1.224.836 1.965.806.83.037 1.635-.284 2.21-.882.489-.586.739-1.335.7-2.097v-.608h-2.91v-2.568h5.973v2.31c.19 1.743-.363 3.486-1.524 4.802M20.495 93.29c-1.52.088-3.008-.458-4.11-1.507-1.1-1.049-1.714-2.507-1.695-4.025V77.394h3.047v10.242c0 1.51 1.228 2.735 2.743 2.735s2.742-1.224 2.742-2.735V77.394h3.048v10.364c.02 1.521-.597 2.982-1.701 4.031-1.104 1.05-2.597 1.593-4.12 1.5M29.606 77.394H32.699V93.168H29.606zM46.107 91.648c-1.13 1.046-2.635 1.594-4.175 1.52H36.22V77.394h5.713c1.54-.074 3.045.473 4.175 1.52 1.767 1.762 1.524 3.935 1.524 6.306 0 2.37.182 4.68-1.524 6.443m-2.164-10.53c-.559-.685-1.418-1.053-2.3-.989h-2.331v10.288h2.33c.88.064 1.736-.298 2.301-.972.58-.715.67-1.854.67-4.24s-.09-3.389-.67-4.088M50.693 93.168L50.693 77.394 61.114 77.394 61.114 80.144 53.786 80.144 53.786 83.837 60.017 83.837 60.017 86.588 53.786 86.588 53.786 90.417 61.114 90.417 61.114 93.168zM68.321 93.29c-2.136.171-4.242-.588-5.774-2.083l2.01-1.99c1.04.935 2.413 1.412 3.81 1.322 1.828 0 2.803-.684 2.803-1.946.033-.49-.144-.97-.487-1.322-.397-.329-.887-.525-1.402-.562l-1.905-.258c-1.127-.108-2.193-.565-3.047-1.307-.766-.823-1.171-1.917-1.127-3.04 0-2.81 2.087-4.786 5.515-4.786 1.884-.123 3.734.544 5.104 1.839l-1.95 1.93c-.89-.786-2.06-1.18-3.245-1.095-1.646 0-2.453.912-2.453 2.006-.007.425.164.832.472 1.125.431.36.963.578 1.524.623l1.874.258c1.12.069 2.189.495 3.047 1.216.853.898 1.294 2.108 1.219 3.343 0 3.04-2.56 4.787-5.866 4.787" transform="translate(11 15)"/>
        </g>
    </g>
</svg>
