<svg width="48" height="48" viewBox="0 0 48 48" fill="none" xmlns="http://www.w3.org/2000/svg">
<g id="in_youtube">
<path fill-rule="evenodd" clip-rule="evenodd" d="M8 48C3.58172 48 0 44.4183 0 40V8C0 3.58172 3.58172 0 8 0H40C44.4183 0 48 3.58172 48 8V40C48 44.4183 44.4183 48 40 48H8ZM24.5477 12C27.047 12 29.3332 12.8735 30.9852 14.4594C32.5399 15.9521 33.4316 17.9992 33.4317 20.0757C33.4317 22.7318 32.6913 25.1505 31.347 26.8858C29.9608 28.6749 27.9915 29.6603 25.8017 29.6603C24.6402 29.6603 23.4464 29.1775 22.705 28.4634C22.4622 29.4216 22.0659 30.9806 21.9527 31.3928C21.8129 31.8997 20.4401 36.3858 18.9043 35.9731C17.5374 35.6059 18.3632 30.9997 18.5003 30.4166C18.7016 29.5687 19.6324 25.624 20.038 23.9053C20.1103 23.599 20.1659 23.3634 20.1977 23.2286C20.07 22.9237 19.7878 22.1297 19.7878 21.0681C19.7878 18.9034 21.0958 17.2077 22.7653 17.2077C24.079 17.2077 24.9617 18.1725 24.9617 19.6084C24.9617 20.4469 24.6373 21.4977 24.2939 22.6104L24.2927 22.6141C24.1041 23.2241 23.9093 23.855 23.7664 24.4599C23.6399 24.9953 23.7435 25.5089 24.058 25.9066C24.3909 26.3272 24.9186 26.5685 25.5059 26.5685C26.8642 26.5685 27.7489 25.5235 28.2521 24.6468C28.9762 23.3852 29.3748 21.6712 29.3748 19.8205C29.3748 16.8877 27.3835 15.0658 24.1779 15.0658C20.1379 15.0658 17.9581 18.177 17.9581 21.1044C17.9581 22.0899 18.2102 22.8472 18.7514 23.4876C19.0485 23.8377 19.1585 24.0795 19.0223 24.5823L19.0091 24.6352C18.9402 24.9106 18.8083 25.4386 18.7491 25.661C18.6408 26.0754 18.328 26.3337 17.9332 26.3337C17.8092 26.3337 17.6828 26.3078 17.5572 26.2563C15.6859 25.4934 14.5684 23.4429 14.5684 20.7714C14.5684 18.6436 15.4854 16.4955 17.0845 14.8777C18.382 13.5649 20.73 12 24.5477 12Z" fill="#C4302B"/>
<path fill-rule="evenodd" clip-rule="evenodd" d="M8 48C3.58172 48 0 44.4183 0 40V8C0 3.58172 3.58172 0 8 0H40C44.4183 0 48 3.58172 48 8V40C48 44.4183 44.4183 48 40 48H8ZM24.5477 12C27.047 12 29.3332 12.8735 30.9852 14.4594C32.5399 15.9521 33.4316 17.9992 33.4317 20.0757C33.4317 22.7318 32.6913 25.1505 31.347 26.8858C29.9608 28.6749 27.9915 29.6603 25.8017 29.6603C24.6402 29.6603 23.4464 29.1775 22.705 28.4634C22.4622 29.4216 22.0659 30.9806 21.9527 31.3928C21.8129 31.8997 20.4401 36.3858 18.9043 35.9731C17.5374 35.6059 18.3632 30.9997 18.5003 30.4166C18.7016 29.5687 19.6324 25.624 20.038 23.9053C20.1103 23.599 20.1659 23.3634 20.1977 23.2286C20.07 22.9237 19.7878 22.1297 19.7878 21.0681C19.7878 18.9034 21.0958 17.2077 22.7653 17.2077C24.079 17.2077 24.9617 18.1725 24.9617 19.6084C24.9617 20.4469 24.6373 21.4977 24.2939 22.6104L24.2927 22.6141C24.1041 23.2241 23.9093 23.855 23.7664 24.4599C23.6399 24.9953 23.7435 25.5089 24.058 25.9066C24.3909 26.3272 24.9186 26.5685 25.5059 26.5685C26.8642 26.5685 27.7489 25.5235 28.2521 24.6468C28.9762 23.3852 29.3748 21.6712 29.3748 19.8205C29.3748 16.8877 27.3835 15.0658 24.1779 15.0658C20.1379 15.0658 17.9581 18.177 17.9581 21.1044C17.9581 22.0899 18.2102 22.8472 18.7514 23.4876C19.0485 23.8377 19.1585 24.0795 19.0223 24.5823L19.0091 24.6352C18.9402 24.9106 18.8083 25.4386 18.7491 25.661C18.6408 26.0754 18.328 26.3337 17.9332 26.3337C17.8092 26.3337 17.6828 26.3078 17.5572 26.2563C15.6859 25.4934 14.5684 23.4429 14.5684 20.7714C14.5684 18.6436 15.4854 16.4955 17.0845 14.8777C18.382 13.5649 20.73 12 24.5477 12Z" fill="#222222"/>
</g>
</svg>
