<svg xmlns="http://www.w3.org/2000/svg" xmlns:xlink="http://www.w3.org/1999/xlink" width="24" height="24" viewBox="0 0 24 24">
    <defs>
        <path id="prefix__a" d="M1538.772 68.553c.004.106.007.211.007.319 0 3.252-2.476 7.004-7.005 7.004-1.39 0-2.684-.407-3.774-1.106.193.023.389.034.587.034 1.154 0 2.215-.393 3.058-1.054-1.078-.02-1.987-.731-2.3-1.709.15.029.304.044.463.044.225 0 .442-.03.649-.087-1.127-.226-1.975-1.22-1.975-2.413v-.032c.332.185.712.296 1.116.309-.661-.442-1.096-1.196-1.096-2.05 0-.451.121-.874.333-1.238 1.215 1.49 3.029 2.47 5.075 2.573-.042-.18-.064-.369-.064-.561 0-1.36 1.103-2.462 2.462-2.462.708 0 1.348.299 1.797.777.56-.11 1.088-.315 1.563-.597-.183.575-.574 1.057-1.082 1.362.498-.06.972-.192 1.414-.388-.33.494-.748.927-1.228 1.275zM1522 83h24V59h-24v24z"/>
    </defs>
    <g fill="none" fill-rule="evenodd" transform="translate(-1522 -59)">
        <use fill="#00ACEE" xlink:href="#prefix__a"/>
        <use fill="#222" xlink:href="#prefix__a"/>
    </g>
</svg>
