<svg width="14" height="16" viewBox="0 0 14 16" fill="none" xmlns="http://www.w3.org/2000/svg">
<path d="M6.99935 7.99984C4.97409 7.99984 3.33268 6.35843 3.33268 4.33317C3.33268 2.30791 4.97409 0.666504 6.99935 0.666504C9.02461 0.666504 10.666 2.30791 10.666 4.33317C10.666 6.35843 9.02461 7.99984 6.99935 7.99984ZM4.43268 8.9165H4.91107C5.54701 9.20869 6.25456 9.37484 6.99935 9.37484C7.74414 9.37484 8.44883 9.20869 9.08763 8.9165H9.56602C11.6915 8.9165 13.416 10.641 13.416 12.7665V13.9582C13.416 14.7173 12.8001 15.3332 12.041 15.3332H1.95768C1.19857 15.3332 0.582683 14.7173 0.582683 13.9582V12.7665C0.582683 10.641 2.30716 8.9165 4.43268 8.9165Z" fill="#979797"/>
</svg>
