<svg xmlns="http://www.w3.org/2000/svg" xmlns:xlink="http://www.w3.org/1999/xlink" width="24" height="24" viewBox="0 0 24 24">
    <defs>
        <path id="prefix__a" d="M1578 59v24h-24V59h24zm-11.915 7.78h-.17c-.447.001-2.616.013-4.116.121-.235.028-.746.03-1.202.508-.36.364-.477 1.192-.477 1.192s-.12.97-.12 1.942v.91c0 .971.12 1.942.12 1.942s.117.827.477 1.192c.456.477 1.056.462 1.323.513.891.084 3.645.115 4.034.12h.129c.448-.003 2.618-.017 4.118-.126.235-.027.746-.03 1.202-.507.36-.365.477-1.192.477-1.192s.12-.97.12-1.942v-.91c0-.972-.12-1.942-.12-1.942s-.117-.828-.477-1.192c-.456-.478-.967-.48-1.202-.508-1.5-.108-3.669-.12-4.116-.121zm-1.325 2.404l3.243 1.692-3.242 1.68v-3.372z"/>
    </defs>
    <g fill="none" fill-rule="evenodd" transform="translate(-1554 -59)">
        <use fill="#C4302B" xlink:href="#prefix__a"/>
        <use fill="#222" xlink:href="#prefix__a"/>
    </g>
</svg>
